<mxfile host="app.diagrams.net" modified="2023-03-29T22:40:13.636Z" agent="Mozilla/5.0 (Windows NT 10.0; WOW64) AppleWebKit/537.36 (KHTML, like Gecko) Chrome/79.0.3945.79 Safari/537.36" version="21.1.2" etag="OsxGaGRqBwIx2WzFq36R" type="github">
  <diagram name="第 1 页" id="pXbuFF_97KaR43waZVra">
    <mxGraphModel>
      <root>
        <mxCell id="0" />
        <mxCell id="1" parent="0" />
      </root>
    </mxGraphModel>
  </diagram>
</mxfile>
